<svg xmlns="http://www.w3.org/2000/svg" width="269" height="276" viewBox="0 0 269 276">
  <defs>
    <style>
      .cls-1 {
        fill: #788a4b;
        fill-rule: evenodd;
      }
    </style>
  </defs>
  <path id="Cup.svg" class="cls-1" d="M478.919,1637.69q-1.48,5.01-3.136,9.84c31.142,9,48.218,22.17,48.218,37.35,0,31.25-69.3,48.12-134.5,48.12S255,1716.13,255,1684.88c0-15.18,17.075-28.35,48.218-37.35-9.491-27.61-14.593-59.42-14.593-92.57,0-22.12,50.748-33.69,100.876-33.69s100.875,11.57,100.875,33.69c0,4.89-.124,9.76-0.345,14.59a25.1,25.1,0,0,1,2.747-.16,26.48,26.48,0,0,1,26.42,26.47C519.2,1618.5,494.956,1631.54,478.919,1637.69Zm-214.313,47.19c0,18.21,51.292,38.49,124.894,38.49s124.893-20.28,124.893-38.49c0-10.17-15.959-20.86-41.945-28.29a195.356,195.356,0,0,1-10.519,22.64l-0.811,1.47-1.558.65c-20.7,8.6-44.93,13.15-70.06,13.15s-49.359-4.55-70.061-13.15l-1.557-.65-0.812-1.47a195.522,195.522,0,0,1-10.519-22.64C280.565,1664.02,264.606,1674.71,264.606,1684.88Zm60.073-11.78c19.205,7.71,41.572,11.78,64.821,11.78s45.615-4.07,64.82-11.78c15.068-28.07,24.134-64,26.053-102.64-17.223,11.98-54.2,18.18-90.873,18.18a313.366,313.366,0,0,1-33.625-1.78v8.83l14.41,9.62v41.07H331.857v-41.07l14.41-9.62v-10.06c-20.067-2.94-37.363-8.02-47.64-15.16C300.548,1609.11,309.613,1645.03,324.679,1673.1Zm142.014-106.07c-17.01-7.45-45.884-12.07-77.193-12.07s-60.187,4.62-77.195,12.07c15.161,6.54,41.933,11.99,77.195,11.99S451.532,1573.57,466.693,1567.03Zm-115.622,37.02-9.607,6.41v26.3h19.214v-26.3ZM389.5,1530.9c-56.546,0-91.269,14.01-91.269,24.06,0,2,1.4,4.16,4.049,6.33,17.47-9.89,50.355-15.96,87.22-15.96s69.745,6.07,87.219,15.96c2.651-2.17,4.049-4.33,4.049-6.33C480.768,1544.91,446.045,1530.9,389.5,1530.9Zm103.277,48.12a16.853,16.853,0,0,0-3.335.34,289.788,289.788,0,0,1-7.333,46.54c11.967-5.55,27.481-15.54,27.481-30.04A16.843,16.843,0,0,0,492.777,1579.02Zm-100.111-75.11a14.274,14.274,0,0,0,1.637-6.69c0-5.77-1.763-8.42-4-11.77-2.5-3.76-5.611-8.43-5.611-17.11a24.236,24.236,0,0,1,.629-5.48l9.354,2.19a14.621,14.621,0,0,0-.376,3.29c0,5.77,1.764,8.42,4,11.77,2.5,3.76,5.611,8.43,5.611,17.11a24.2,24.2,0,0,1-2.735,11.16Zm-22.676,1.04a14.611,14.611,0,0,0,.3-2.92c0-7.63-2.43-10.07-5.8-13.44-3.837-3.85-8.612-8.63-8.612-20.25A24.176,24.176,0,0,1,358.7,1457l8.472,4.55a14.171,14.171,0,0,0-1.693,6.79c0,7.64,2.43,10.07,5.8,13.44,3.837,3.85,8.613,8.63,8.613,20.25a24.651,24.651,0,0,1-.484,4.83Z" transform="translate(-255 -1457)"/>
</svg>

