<svg xmlns="http://www.w3.org/2000/svg" width="249.031" height="245" viewBox="0 0 249.031 245">
  <defs>
    <style>
      .cls-1 {
        fill: #788a4b;
        fill-rule: evenodd;
      }
    </style>
  </defs>
  <path id="Entry.svg" class="cls-1" d="M802.337,1528.81l-20.149,26.83a8.817,8.817,0,0,1-7.157,3.63H755.077v53.46h26.681a8.915,8.915,0,0,1,8.894,8.91v8.91a8.906,8.906,0,0,1-8.894,8.9h-4.447v84.64h8.894V1733H559.418v-8.91h8.894v-84.64h-4.447a8.906,8.906,0,0,1-8.893-8.9v-8.91a8.915,8.915,0,0,1,8.893-8.91h45.228a13.151,13.151,0,0,1-.76-4.34c-0.035-12.19,5.645-26.91,14.474-37.49a33.051,33.051,0,0,1,25.547-11.63H661.7a30.5,30.5,0,0,1,29.555,23.24l0.586,2.35,6.032-4.82a13.147,13.147,0,0,1,8.295-2.95,13.33,13.33,0,0,1,8.3,23.77l-14.8,11.87H728.4v-53.46H701.716a8.915,8.915,0,0,1-8.894-8.91v-53.45a8.915,8.915,0,0,1,8.894-8.91h73.315a8.864,8.864,0,0,1,7.226,3.73l20.015,26.64A8.939,8.939,0,0,1,802.337,1528.81Zm-56.153,30.46H737.29v53.46h8.894v-53.46Zm-37.277,34.63a4.38,4.38,0,0,0,1.7-3.45,4.454,4.454,0,0,0-4.446-4.45,4.377,4.377,0,0,0-2.745,1l-16.853,13.46-3.939-15.8a21.612,21.612,0,0,0-20.931-16.48H648.354a24.183,24.183,0,0,0-18.721,8.44c-7.451,8.93-12.437,21.68-12.406,31.74a4.473,4.473,0,0,0,4.447,4.37h30.649a4.826,4.826,0,0,0,4.86-3.68,4.452,4.452,0,0,0-4.382-5.23H630.567v-8.91H652.8a13.366,13.366,0,0,1,13.163,15.58,12.5,12.5,0,0,1-.587,2.24h18.552a4.373,4.373,0,0,0,2.74-1Zm-56.584,27.74H563.865v8.91h66.7v8.9H577.206v84.64H768.418v-84.64H746.184v-8.9h35.574v-8.91H652.323Zm122.76-124.65-73.367-.08h-0.009l0.009,53.45h73.315l20.137-26.82ZM718.5,1524.42l6.289-6.3,12.558,12.58,25.76-25.8,6.289,6.29-32.049,32.11Zm-61.247,106.13h8.893v8.9h-8.893v-8.9Zm-17.783,0h8.889v8.9h-8.889v-8.9Zm15.559-80.19c-11.034,0-20.01-8.74-20.01-19.49v-10.02c0-10.74,8.976-19.49,20.01-19.49s20.011,8.75,20.011,19.49v10.02C675.035,1541.62,666.059,1550.36,655.024,1550.36Zm11.117-29.51a11.131,11.131,0,0,0-22.234,0v10.02a11.131,11.131,0,0,0,22.234,0v-10.02Z" transform="translate(-554.969 -1488)"/>
</svg>

