<svg xmlns="http://www.w3.org/2000/svg" width="250" height="231" viewBox="0 0 250 231">
  <defs>
    <style>
      .cls-1 {
        fill: #788a4b;
        fill-rule: evenodd;
      }
    </style>
  </defs>
  <path id="Pic.svg" class="cls-1" d="M1264,1726V1495h250v231H1264Zm240.38-221.37H1273.62V1663.7a608.705,608.705,0,0,1,62.5-16.29v-22.96a24.1,24.1,0,0,1-19.24-23.58v-19.24a24.04,24.04,0,1,1,48.08,0v19.24a24.093,24.093,0,0,1-19.23,23.58v21.01c21.86-4.3,47.76-8.41,76.92-11.35v-14.33a33.733,33.733,0,0,1-28.84-33.34v-33.69a33.655,33.655,0,1,1,67.31,0v33.69a33.742,33.742,0,0,1-28.85,33.34v13.42c22.35-2,46.46-3.29,72.11-3.43V1504.63Zm-163.46,110.68a14.444,14.444,0,0,0,14.43-14.44v-19.24a14.425,14.425,0,1,0-28.85,0v19.24A14.442,14.442,0,0,0,1340.92,1615.31Zm86.54-4.81a24.079,24.079,0,0,0,24.04-24.06v-33.69a24.04,24.04,0,1,0-48.08,0v33.69A24.085,24.085,0,0,0,1427.46,1610.5Zm76.92,28.89c-124.84.71-213.38,28.55-230.76,34.46v4.02h230.76v-38.48Zm0,48.11H1273.62v28.87h230.76V1687.5Zm-100.96,19.25h-48.07v-9.63h48.07v9.63Zm19.23,0h-9.61v-9.63h9.61v9.63Zm-139.42-154h9.62v9.63h-9.62v-9.63Zm0-19.25h9.62v9.63h-9.62v-9.63Zm0-19.25h9.62v9.63h-9.62v-9.63Z" transform="translate(-1264 -1495)"/>
</svg>

